<svg width="340" height="250" xmlns="http://www.w3.org/2000/svg">
 <!-- Created with Method Draw - http://github.com/duopixel/Method-Draw/ -->
 <g>
  <title>background</title>
  <rect fill="#fff" id="canvas_background" height="252" width="342" y="-1" x="-1"/>
  <g display="none" overflow="visible" y="0" x="0" height="100%" width="100%" id="canvasGrid">
   <rect fill="url(#gridpattern)" stroke-width="0" y="0" x="0" height="100%" width="100%"/>
  </g>
 </g>
 <g>
  <title>Layer 1</title>
  <ellipse ry="12" rx="12" id="svg_1" cy="216" cx="29" stroke-width="1.5" stroke="#000" fill="#fff"/>
  <ellipse ry="12" rx="12" id="svg_2" cy="142" cx="52" stroke-width="1.5" stroke="#000" fill="#fff"/>
  <ellipse ry="12" rx="12" id="svg_3" cy="79" cx="98" stroke-width="1.5" stroke="#000" fill="#fff"/>
  <ellipse ry="12" rx="12" id="svg_4" cy="27" cx="168" stroke-width="1.5" stroke="#000" fill="#fff"/>
  <ellipse ry="12" rx="12" id="svg_5" cy="22" cx="254" stroke-width="1.5" stroke="#000" fill="#fff"/>
  <ellipse ry="12" rx="12" id="svg_6" cy="87" cx="308" stroke-width="1.5" stroke="#000" fill="#fff"/>
  <ellipse ry="12" rx="12" id="svg_7" cy="150" cx="263" stroke-width="1.5" stroke="#000" fill="#fff"/>
  <ellipse ry="12" rx="12" id="svg_8" cy="153" cx="169" stroke-width="1.5" stroke="#000" fill="#fff"/>
  <line stroke-linecap="null" stroke-linejoin="null" id="svg_9" y2="152.5" x2="47.5" y1="204.5" x1="31.5" fill-opacity="null" stroke-opacity="null" stroke-width="1.5" stroke="#000" fill="none"/>
  <line stroke="#000" stroke-linecap="null" stroke-linejoin="null" id="svg_10" y2="86.499999" x2="88.5" y1="131.5" x1="59.5" fill-opacity="null" stroke-opacity="null" stroke-width="1.5" fill="none"/>
  <line stroke-linecap="null" stroke-linejoin="null" id="svg_11" y2="31.5" x2="155.5" y1="70.5" x1="107.5" fill-opacity="null" stroke-opacity="null" stroke-width="1.5" stroke="#000" fill="none"/>
  <line stroke-linecap="null" stroke-linejoin="null" id="svg_12" y2="20.5" x2="241.5" y1="22.5" x1="178.5" fill-opacity="null" stroke-opacity="null" stroke-width="1.5" stroke="#000" fill="none"/>
  <line stroke-linecap="null" stroke-linejoin="null" id="svg_13" y2="76.5" x2="304.5" y1="28.5" x1="264.5" fill-opacity="null" stroke-opacity="null" stroke-width="1.5" stroke="#000" fill="none"/>
  <line stroke-linecap="null" stroke-linejoin="null" id="svg_14" y2="140.5" x2="272.5" y1="99.5" x1="307.5" fill-opacity="null" stroke-opacity="null" stroke-width="1.5" stroke="#000" fill="none"/>
  <line stroke-linecap="null" stroke-linejoin="null" id="svg_15" y2="154.5" x2="181.5" y1="153.5" x1="251.5" fill-opacity="null" stroke-opacity="null" stroke-width="1.5" stroke="#000" fill="none"/>
  <line stroke-linecap="null" stroke-linejoin="null" id="svg_16" y2="146.5" x2="158.5" y1="90.5" x1="102.5" fill-opacity="null" stroke-opacity="null" stroke-width="1.5" stroke="#000" fill="none"/>
 </g>
</svg>