<svg width="530" height="300" xmlns="http://www.w3.org/2000/svg">
 <!-- Created with Method Draw - http://github.com/duopixel/Method-Draw/ -->
 <g>
  <title>background</title>
  <rect fill="#fff" id="canvas_background" height="302" width="532" y="-1" x="-1"/>
  <g display="none" overflow="visible" y="0" x="0" height="100%" width="100%" id="canvasGrid">
   <rect fill="url(#gridpattern)" stroke-width="0" y="0" x="0" height="100%" width="100%"/>
  </g>
 </g>
 <g>
  <title>Layer 1</title>
  <ellipse ry="10" rx="10" id="svg_1" cy="96" cx="55" stroke-width="1.5" stroke="#000" fill="#fff"/>
  <ellipse ry="10" rx="10" id="svg_8" cy="96" cx="417" stroke-width="1.5" stroke="#000" fill="#fff"/>
  <line stroke-linecap="null" stroke-linejoin="null" id="svg_9" y2="96" x2="45.5" y1="96" x1="3.5" fill-opacity="null" stroke-opacity="null" stroke-width="1.5" stroke="#000" fill="none"/>
  <line stroke="#000" stroke-linecap="null" stroke-linejoin="null" id="svg_10" y2="96" x2="405.999991" y1="96" x1="65.5" fill-opacity="null" stroke-opacity="null" stroke-width="1.5" fill="none"/>
  <ellipse ry="10" rx="10" id="svg_2" cy="96" cx="106" stroke-width="1.5" stroke="#000" fill="#fff"/>
  <ellipse ry="10" rx="10" id="svg_3" cy="96" cx="160" stroke-width="1.5" stroke="#000" fill="#fff"/>
  <ellipse ry="10" rx="10" id="svg_4" cy="96" cx="211" stroke-width="1.5" stroke="#000" fill="#fff"/>
  <ellipse ry="10" rx="10" id="svg_5" cy="96" cx="261" stroke-width="1.5" stroke="#000" fill="#fff"/>
  <ellipse ry="10" rx="10" id="svg_6" cy="96" cx="312" stroke-width="1.5" stroke="#000" fill="#fff"/>
  <ellipse ry="10" rx="10" id="svg_7" cy="96" cx="366" stroke-width="1.5" stroke="#000" fill="#fff"/>
  <line stroke="#000" stroke-linecap="null" stroke-linejoin="null" id="svg_17" y2="45.999999" x2="183.500008" y1="87" x1="56.5" fill-opacity="null" stroke-opacity="null" stroke-width="1.5" fill="none"/>
  <line stroke="#000" stroke-linecap="null" stroke-linejoin="null" id="svg_18" y2="46" x2="184" y1="90" x1="304.5" fill-opacity="null" stroke-opacity="null" stroke-width="1.5" fill="none"/>
  <line stroke-linecap="null" stroke-linejoin="null" id="svg_19" y2="5" x2="311.5" y1="86" x1="312" fill-opacity="null" stroke-opacity="null" stroke-width="1.5" stroke="#000" fill="none"/>
  <line stroke-linecap="null" stroke-linejoin="null" id="svg_20" y2="43" x2="271.5" y1="88" x1="165.5" fill-opacity="null" stroke-opacity="null" stroke-width="1.5" stroke="#000" fill="none"/>
  <line stroke="#000" stroke-linecap="null" stroke-linejoin="null" id="svg_21" y2="43.999999" x2="271.499997" y1="87" x1="362.5" fill-opacity="null" stroke-opacity="null" stroke-width="1.5" fill="none"/>
  <text xml:space="preserve" text-anchor="start" font-family="Helvetica, Arial, sans-serif" font-size="18" id="svg_22" y="55" x="325.5" fill-opacity="null" stroke-opacity="null" stroke-width="0" stroke="#000" fill="#000000">跨越右边界，不合法</text>
  <ellipse ry="10" rx="10" id="svg_23" cy="222" cx="55" stroke-width="1.5" stroke="#000" fill="#fff"/>
  <ellipse ry="10" rx="10" id="svg_24" cy="222" cx="417" stroke-width="1.5" stroke="#000" fill="#fff"/>
  <line stroke-linecap="null" stroke-linejoin="null" id="svg_25" y2="222" x2="45.5" y1="222" x1="3.5" fill-opacity="null" stroke-opacity="null" stroke-width="1.5" stroke="#000" fill="none"/>
  <line stroke="#000" stroke-linecap="null" stroke-linejoin="null" id="svg_26" y2="222" x2="405.999991" y1="222" x1="65.5" fill-opacity="null" stroke-opacity="null" stroke-width="1.5" fill="none"/>
  <ellipse ry="10" rx="10" id="svg_27" cy="222" cx="106" stroke-width="1.5" stroke="#000" fill="#fff"/>
  <ellipse ry="10" rx="10" id="svg_28" cy="222" cx="160" stroke-width="1.5" stroke="#000" fill="#fff"/>
  <ellipse ry="10" rx="10" id="svg_29" cy="222" cx="211" stroke-width="1.5" stroke="#000" fill="#fff"/>
  <ellipse ry="10" rx="10" id="svg_30" cy="222" cx="261" stroke-width="1.5" stroke="#000" fill="#fff"/>
  <ellipse ry="10" rx="10" id="svg_31" cy="222" cx="312" stroke-width="1.5" stroke="#000" fill="#fff"/>
  <ellipse ry="10" rx="10" id="svg_32" cy="222" cx="366" stroke-width="1.5" stroke="#000" fill="#fff"/>
  <line stroke="#000" stroke-linecap="null" stroke-linejoin="null" id="svg_33" y2="171.999999" x2="183.500008" y1="213" x1="56.5" fill-opacity="null" stroke-opacity="null" stroke-width="1.5" fill="none"/>
  <line stroke="#000" stroke-linecap="null" stroke-linejoin="null" id="svg_34" y2="172" x2="184" y1="216" x1="304.5" fill-opacity="null" stroke-opacity="null" stroke-width="1.5" fill="none"/>
  <line stroke-linecap="null" stroke-linejoin="null" id="svg_35" y2="131" x2="311.5" y1="212" x1="312" fill-opacity="null" stroke-opacity="null" stroke-width="1.5" stroke="#000" fill="none"/>
  <text xml:space="preserve" text-anchor="start" font-family="Helvetica, Arial, sans-serif" font-size="18" id="svg_38" y="152" x="329.5" fill-opacity="null" stroke-opacity="null" stroke-width="0" stroke="#000" fill="#000000">跨越右边界，不合法</text>
  <line stroke-linecap="null" stroke-linejoin="null" id="svg_39" y2="292" x2="407.5" y1="231" x1="164.5" fill-opacity="null" stroke-opacity="null" stroke-width="1.5" stroke="#000" fill="none"/>
  <line stroke-linecap="null" stroke-linejoin="null" id="svg_40" y2="159" x2="401.5" y1="212" x1="261.5" fill-opacity="null" stroke-opacity="null" stroke-width="1.5" stroke="#000" fill="none"/>
  <line stroke="#000" stroke-linecap="null" stroke-linejoin="null" id="svg_41" y2="209" x2="491.499998" y1="292" x1="407.5" fill-opacity="null" stroke-opacity="null" stroke-width="1.5" fill="none"/>
  <line stroke-linecap="null" stroke-linejoin="null" id="svg_42" y2="208" x2="491.5" y1="160" x1="401.5" fill-opacity="null" stroke-opacity="null" stroke-width="1.5" stroke="#000" fill="none"/>
 </g>
</svg>