<svg width="190" height="250" xmlns="http://www.w3.org/2000/svg">
 <!-- Created with Method Draw - http://github.com/duopixel/Method-Draw/ -->
 <g>
  <title>background</title>
  <rect fill="#fff" id="canvas_background" height="252" width="192" y="-1" x="-1"/>
  <g display="none" overflow="visible" y="0" x="0" height="100%" width="100%" id="canvasGrid">
   <rect fill="url(#gridpattern)" stroke-width="0" y="0" x="0" height="100%" width="100%"/>
  </g>
 </g>
 <g>
  <title>Layer 1</title>
  <ellipse ry="14.5" rx="14.5" id="svg_1" cy="31" cx="94.5" stroke-width="1.5" stroke="#000" fill="#fff"/>
  <ellipse ry="14.5" rx="14.5" id="svg_2" cy="81" cx="36.5" stroke-width="1.5" stroke="#000" fill="#fff"/>
  <ellipse ry="14.5" rx="14.5" id="svg_3" cy="81" cx="94.5" stroke-width="1.5" stroke="#000" fill="#fff"/>
  <ellipse ry="14.5" rx="14.5" id="svg_4" cy="81" cx="150.5" stroke-width="1.5" stroke="#000" fill="#fff"/>
  <ellipse ry="14.5" rx="14.5" id="svg_5" cy="128" cx="73.5" stroke-width="1.5" stroke="#000" fill="#fff"/>
  <ellipse ry="14.5" rx="14.5" id="svg_6" cy="128" cx="117.5" stroke-width="1.5" stroke="#000" fill="#fff"/>
  <ellipse ry="14.5" rx="14.5" id="svg_7" cy="128" cx="36.5" stroke-width="1.5" stroke="#000" fill="#fff"/>
  <ellipse ry="14.5" rx="14.5" id="svg_9" cy="174" cx="117.5" stroke-width="1.5" stroke="#000" fill="#fff"/>
  <ellipse ry="14.5" rx="14.5" id="svg_10" cy="174" cx="36.5" stroke-width="1.5" stroke="#000" fill="#fff"/>
  <ellipse ry="14.5" rx="14.5" id="svg_11" cy="218" cx="95.5" stroke-width="1.5" stroke="#000" fill="#fff"/>
  <ellipse ry="14.5" rx="14.5" id="svg_12" cy="218" cx="139.5" stroke-width="1.5" stroke="#000" fill="#fff"/>
  <line stroke-linecap="null" stroke-linejoin="null" id="svg_13" y2="70.5" x2="47" y1="40.5" x1="83" fill-opacity="null" stroke-opacity="null" stroke-width="1.5" stroke="#000" fill="none"/>
  <line stroke-linecap="null" stroke-linejoin="null" id="svg_14" y2="69.5" x2="139" y1="42.5" x1="105" fill-opacity="null" stroke-opacity="null" stroke-width="1.5" stroke="#000" fill="none"/>
  <line stroke-linecap="null" stroke-linejoin="null" id="svg_15" y2="67.5" x2="95" y1="44.5" x1="95" fill-opacity="null" stroke-opacity="null" stroke-width="3.5" stroke="#000" fill="none"/>
  <line stroke-linecap="null" stroke-linejoin="null" id="svg_16" y2="113.5" x2="78" y1="93.5" x1="89" fill-opacity="null" stroke-opacity="null" stroke-width="1.5" stroke="#000" fill="none"/>
  <line stroke-linecap="null" stroke-linejoin="null" id="svg_17" y2="114.5" x2="112" y1="94.5" x1="101" fill-opacity="null" stroke-opacity="null" stroke-width="3.5" stroke="#000" fill="none"/>
  <line stroke-linecap="null" stroke-linejoin="null" id="svg_18" y2="113.5" x2="36" y1="96.5" x1="36" fill-opacity="null" stroke-opacity="null" stroke-width="3.5" stroke="#000" fill="none"/>
  <line stroke-linecap="null" stroke-linejoin="null" id="svg_19" y2="159" x2="36" y1="142.5" x1="36" fill-opacity="null" stroke-opacity="null" stroke-width="3.5" stroke="#000" fill="none"/>
  <line stroke-linecap="null" stroke-linejoin="null" id="svg_20" y2="158.5" x2="117" y1="143.5" x1="117" fill-opacity="null" stroke-opacity="null" stroke-width="3.5" stroke="#000" fill="none"/>
  <line stroke-linecap="null" stroke-linejoin="null" id="svg_21" y2="205.5" x2="103" y1="188.5" x1="115" fill-opacity="null" stroke-opacity="null" stroke-width="3.5" stroke="#000" fill="none"/>
  <line stroke-linecap="null" stroke-linejoin="null" id="svg_22" y2="187.5" x2="121" y1="205.5" x1="131" fill-opacity="null" stroke-opacity="null" stroke-width="1.5" stroke="#000" fill="none"/>
  <ellipse ry="14.5" rx="14.5" id="svg_23" cy="128" cx="152.5" stroke-width="1.5" stroke="#000" fill="#fff"/>
  <line stroke-linecap="null" stroke-linejoin="null" id="svg_24" y2="113.5" x2="152" y1="96.5" x1="152" fill-opacity="null" stroke-opacity="null" stroke-width="3.5" stroke="#000" fill="none"/>
 </g>
</svg>