<svg xmlns="http://www.w3.org/2000/svg" id="svg2" viewBox="0 0 200 200">
  <g id="glass" fill="none" stroke="#000">
    <path stroke-width="10" d="M31.625 53h46.5v33h-46.5z"/>
    <path stroke-width="10" d="M121.625 53h46.5v33h-46.5z"/>
    <path stroke-width="9" d="M80.375 70.014h37"/>
  </g>
  <g id="..">
    <path d="M82.72 128.695q-3.96 0-6.48-2.52-2.52-2.7-2.52-6.48 0-3.78 2.52-6.3 2.52-2.7 6.48-2.7 3.78 0 6.3 2.7 2.52 2.52 2.52 6.3t-2.52 6.48q-2.52 2.52-6.3 2.52z"/>
    <path d="M117.28 128.695q-3.78 0-6.3-2.52-2.52-2.7-2.52-6.48 0-3.78 2.52-6.3 2.52-2.7 6.3-2.7 3.96 0 6.48 2.7 2.52 2.52 2.52 6.3t-2.52 6.48q-2.52 2.52-6.48 2.52z"/>
  </g>
  <g id="naive" fill-opacity=".2">
    <path d="M-96.22 146.875h12.24l1.26 12.6h.54q6.3-6.3 13.14-10.44 7.02-4.32 16.2-4.32 13.86 0 20.16 8.64 6.48 8.64 6.48 25.56v55.44h-14.76v-53.46q0-12.42-3.96-17.82-3.96-5.58-12.6-5.58-6.84 0-12.06 3.42-5.22 3.42-11.88 10.08v63.36h-14.76v-87.48z"/>
    <path d="M22.38 236.515q-10.98 0-18.36-6.48-7.2-6.48-7.2-18.36 0-14.4 12.78-21.96 12.78-7.74 40.86-10.8 0-4.14-.9-8.1-.72-3.96-2.7-7.02-1.98-3.06-5.58-4.86-3.42-1.98-8.82-1.98-7.56 0-14.22 2.88-6.66 2.88-11.88 6.48L.6 156.055q6.12-3.96 14.94-7.56 8.82-3.78 19.44-3.78 16.02 0 23.22 9.9 7.2 9.72 7.2 26.1v53.64H53.16l-1.26-10.44h-.54q-6.3 5.22-13.5 9-7.2 3.6-15.48 3.6zm4.32-11.88q6.3 0 11.88-2.88 5.58-3.06 11.88-8.82v-24.3q-10.98 1.44-18.54 3.42-7.38 1.98-12.06 4.68-4.5 2.7-6.66 6.3-1.98 3.42-1.98 7.56 0 7.56 4.5 10.8 4.5 3.24 10.98 3.24z"/>
    <path d="M92.922 146.875h14.76v87.48h-14.76v-87.48z"/>
    <path d="M124.62 146.875h15.3l16.56 49.68 3.96 12.96q2.16 6.48 4.14 12.78h.72q1.98-6.3 3.96-12.78l3.96-12.96 16.56-49.68h14.58l-30.96 87.48h-17.28l-31.5-87.48z"/>
    <path d="M256 236.515q-8.82 0-16.56-3.06-7.56-3.24-13.32-9-5.58-5.94-8.82-14.4t-3.24-19.26q0-10.8 3.24-19.26 3.42-8.64 8.82-14.58 5.58-5.94 12.6-9 7.02-3.24 14.58-3.24 8.28 0 14.76 2.88 6.66 2.88 10.98 8.28 4.5 5.4 6.84 12.96 2.34 7.56 2.34 16.92 0 2.34-.18 4.68 0 2.16-.36 3.78h-59.04q.9 14.04 8.64 22.32 7.92 8.1 20.52 8.1 6.3 0 11.52-1.8 5.4-1.98 10.26-5.04l5.22 9.72q-5.76 3.6-12.78 6.3-7.02 2.7-16.02 2.7zm19.26-52.92q0-13.32-5.76-20.16-5.58-7.02-15.84-7.02-4.68 0-9 1.8-4.14 1.8-7.56 5.4-3.42 3.42-5.76 8.46-2.16 5.04-2.88 11.52h46.8z"/>
  </g>
</svg>
