<svg width="280" height="280" xmlns="http://www.w3.org/2000/svg">
 <!-- Created with Method Draw - http://github.com/duopixel/Method-Draw/ -->
 <g>
  <title>background</title>
  <rect fill="#fff" id="canvas_background" height="282" width="282" y="-1" x="-1"/>
  <g display="none" overflow="visible" y="0" x="0" height="100%" width="100%" id="canvasGrid">
   <rect fill="url(#gridpattern)" stroke-width="0" y="0" x="0" height="100%" width="100%"/>
  </g>
 </g>
 <g>
  <title>Layer 1</title>
  <ellipse ry="130" rx="130" id="svg_46" cy="139" cx="140" fill-opacity="null" stroke-opacity="null" stroke-width="1.5" stroke="#000" fill="#fff"/>
  <ellipse ry="10" rx="10" id="svg_1" cy="138.5" cx="139.5" stroke-width="1.5" stroke="#000" fill="#fff"/>
  <ellipse ry="50" rx="49.5" id="svg_28" cy="64.5" cx="140" fill-opacity="null" stroke-opacity="null" stroke-width="1.5" stroke="#000" fill="#fff"/>
  <ellipse ry="10" rx="10" id="svg_29" cy="64.5" cx="139.5" stroke-width="1.5" stroke="#000" fill="#fff"/>
  <ellipse ry="16" rx="16" id="svg_30" cy="65" cx="169.5" fill-opacity="null" stroke-opacity="null" stroke-width="1.5" stroke="#000" fill="#fff"/>
  <ellipse ry="16" rx="16" id="svg_31" cy="95" cx="139.5" fill-opacity="null" stroke-opacity="null" stroke-width="1.5" stroke="#000" fill="#fff"/>
  <ellipse ry="16" rx="16" id="svg_32" cy="65" cx="109.5" fill-opacity="null" stroke-opacity="null" stroke-width="1.5" stroke="#000" fill="#fff"/>
  <ellipse ry="16" rx="16" id="svg_33" cy="34" cx="139.5" fill-opacity="null" stroke-opacity="null" stroke-width="1.5" stroke="#000" fill="#fff"/>
  <ellipse ry="10" rx="10" id="svg_72" cy="34.5" cx="139.5" stroke-width="1.5" stroke="#000" fill="#fff"/>
  <ellipse ry="10" rx="10" id="svg_73" cy="64.5" cx="169.5" stroke-width="1.5" stroke="#000" fill="#fff"/>
  <ellipse ry="10" rx="10" id="svg_74" cy="95.5" cx="139.5" stroke-width="1.5" stroke="#000" fill="#fff"/>
  <ellipse ry="10" rx="10" id="svg_75" cy="64.5" cx="109.5" stroke-width="1.5" stroke="#000" fill="#fff"/>
  <ellipse ry="50" rx="49.5" id="svg_76" cy="138.5" cx="65" fill-opacity="null" stroke-opacity="null" stroke-width="1.5" stroke="#000" fill="#fff"/>
  <ellipse ry="10" rx="10" id="svg_77" cy="138.5" cx="64.5" stroke-width="1.5" stroke="#000" fill="#fff"/>
  <ellipse ry="16" rx="16" id="svg_78" cy="139" cx="94.5" fill-opacity="null" stroke-opacity="null" stroke-width="1.5" stroke="#000" fill="#fff"/>
  <ellipse ry="16" rx="16" id="svg_79" cy="169" cx="64.5" fill-opacity="null" stroke-opacity="null" stroke-width="1.5" stroke="#000" fill="#fff"/>
  <ellipse ry="16" rx="16" id="svg_80" cy="139" cx="34.5" fill-opacity="null" stroke-opacity="null" stroke-width="1.5" stroke="#000" fill="#fff"/>
  <ellipse ry="16" rx="16" id="svg_81" cy="108" cx="64.5" fill-opacity="null" stroke-opacity="null" stroke-width="1.5" stroke="#000" fill="#fff"/>
  <ellipse ry="10" rx="10" id="svg_82" cy="108.5" cx="64.5" stroke-width="1.5" stroke="#000" fill="#fff"/>
  <ellipse ry="10" rx="10" id="svg_83" cy="138.5" cx="94.5" stroke-width="1.5" stroke="#000" fill="#fff"/>
  <ellipse ry="10" rx="10" id="svg_84" cy="169.5" cx="64.5" stroke-width="1.5" stroke="#000" fill="#fff"/>
  <ellipse ry="10" rx="10" id="svg_85" cy="138.5" cx="34.5" stroke-width="1.5" stroke="#000" fill="#fff"/>
  <ellipse ry="50" rx="49.5" id="svg_96" cy="213.5" cx="140" fill-opacity="null" stroke-opacity="null" stroke-width="1.5" stroke="#000" fill="#fff"/>
  <ellipse ry="10" rx="10" id="svg_97" cy="213.5" cx="139.5" stroke-width="1.5" stroke="#000" fill="#fff"/>
  <ellipse ry="16" rx="16" id="svg_98" cy="214" cx="169.5" fill-opacity="null" stroke-opacity="null" stroke-width="1.5" stroke="#000" fill="#fff"/>
  <ellipse ry="16" rx="16" id="svg_99" cy="244" cx="139.5" fill-opacity="null" stroke-opacity="null" stroke-width="1.5" stroke="#000" fill="#fff"/>
  <ellipse ry="16" rx="16" id="svg_100" cy="214" cx="109.5" fill-opacity="null" stroke-opacity="null" stroke-width="1.5" stroke="#000" fill="#fff"/>
  <ellipse ry="16" rx="16" id="svg_101" cy="183" cx="139.5" fill-opacity="null" stroke-opacity="null" stroke-width="1.5" stroke="#000" fill="#fff"/>
  <ellipse ry="10" rx="10" id="svg_102" cy="183.5" cx="139.5" stroke-width="1.5" stroke="#000" fill="#fff"/>
  <ellipse ry="10" rx="10" id="svg_103" cy="213.5" cx="169.5" stroke-width="1.5" stroke="#000" fill="#fff"/>
  <ellipse ry="10" rx="10" id="svg_104" cy="244.5" cx="139.5" stroke-width="1.5" stroke="#000" fill="#fff"/>
  <ellipse ry="10" rx="10" id="svg_105" cy="213.5" cx="109.5" stroke-width="1.5" stroke="#000" fill="#fff"/>
  <ellipse ry="50" rx="49.5" id="svg_106" cy="138.5" cx="217" fill-opacity="null" stroke-opacity="null" stroke-width="1.5" stroke="#000" fill="#fff"/>
  <ellipse ry="10" rx="10" id="svg_107" cy="138.5" cx="216.5" stroke-width="1.5" stroke="#000" fill="#fff"/>
  <ellipse ry="16" rx="16" id="svg_108" cy="139" cx="246.5" fill-opacity="null" stroke-opacity="null" stroke-width="1.5" stroke="#000" fill="#fff"/>
  <ellipse ry="16" rx="16" id="svg_109" cy="169" cx="216.5" fill-opacity="null" stroke-opacity="null" stroke-width="1.5" stroke="#000" fill="#fff"/>
  <ellipse ry="16" rx="16" id="svg_110" cy="139" cx="186.5" fill-opacity="null" stroke-opacity="null" stroke-width="1.5" stroke="#000" fill="#fff"/>
  <ellipse ry="16" rx="16" id="svg_111" cy="108" cx="216.5" fill-opacity="null" stroke-opacity="null" stroke-width="1.5" stroke="#000" fill="#fff"/>
  <ellipse ry="10" rx="10" id="svg_112" cy="108.5" cx="216.5" stroke-width="1.5" stroke="#000" fill="#fff"/>
  <ellipse ry="10" rx="10" id="svg_113" cy="138.5" cx="246.5" stroke-width="1.5" stroke="#000" fill="#fff"/>
  <ellipse ry="10" rx="10" id="svg_114" cy="169.5" cx="216.5" stroke-width="1.5" stroke="#000" fill="#fff"/>
  <ellipse ry="10" rx="10" id="svg_115" cy="138.5" cx="186.5" stroke-width="1.5" stroke="#000" fill="#fff"/>
  <line stroke-linecap="null" stroke-linejoin="null" id="svg_116" y2="54" x2="139.5" y1="45" x1="139.5" fill-opacity="null" stroke-opacity="null" stroke-width="1.5" stroke="#000" fill="none"/>
  <line stroke-linecap="null" stroke-linejoin="null" id="svg_117" y2="139" x2="205.5" y1="139" x1="196.5" fill-opacity="null" stroke-opacity="null" stroke-width="1.5" stroke="#000" fill="none"/>
  <line stroke-linecap="null" stroke-linejoin="null" id="svg_118" y2="64" x2="159.5" y1="64" x1="149.5" fill-opacity="null" stroke-opacity="null" stroke-width="1.5" stroke="#000" fill="none"/>
  <line stroke-linecap="null" stroke-linejoin="null" id="svg_119" y2="139" x2="235.5" y1="139" x1="227.5" fill-opacity="null" stroke-opacity="null" stroke-width="1.5" stroke="#000" fill="none"/>
  <line stroke-linecap="null" stroke-linejoin="null" id="svg_120" y2="85" x2="139.5" y1="75" x1="139.5" fill-opacity="null" stroke-opacity="null" stroke-width="1.5" stroke="#000" fill="none"/>
  <line stroke-linecap="null" stroke-linejoin="null" id="svg_121" y2="64" x2="130.5" y1="64" x1="120.5" fill-opacity="null" stroke-opacity="null" stroke-width="1.5" stroke="#000" fill="none"/>
  <line stroke-linecap="null" stroke-linejoin="null" id="svg_122" y2="139" x2="83.5" y1="139" x1="74.5" fill-opacity="null" stroke-opacity="null" stroke-width="1.5" stroke="#000" fill="none"/>
  <line stroke-linecap="null" stroke-linejoin="null" id="svg_123" y2="139" x2="54.5" y1="139" x1="45.5" fill-opacity="null" stroke-opacity="null" stroke-width="1.5" stroke="#000" fill="none"/>
  <line stroke-linecap="null" stroke-linejoin="null" id="svg_124" y2="214" x2="129.5" y1="214" x1="120.5" fill-opacity="null" stroke-opacity="null" stroke-width="1.5" stroke="#000" fill="none"/>
  <line stroke-linecap="null" stroke-linejoin="null" id="svg_125" y2="214" x2="159.5" y1="214" x1="150.5" fill-opacity="null" stroke-opacity="null" stroke-width="1.5" stroke="#000" fill="none"/>
  <line stroke-linecap="null" stroke-linejoin="null" id="svg_126" y2="203" x2="139.5" y1="194" x1="139.5" fill-opacity="null" stroke-opacity="null" stroke-width="1.5" stroke="#000" fill="none"/>
  <line stroke-linecap="null" stroke-linejoin="null" id="svg_127" y2="234" x2="139.5" y1="224" x1="139.5" fill-opacity="null" stroke-opacity="null" stroke-width="1.5" stroke="#000" fill="none"/>
  <line stroke-linecap="null" stroke-linejoin="null" id="svg_128" y2="159" x2="217.5" y1="149" x1="217.5" fill-opacity="null" stroke-opacity="null" stroke-width="1.5" stroke="#000" fill="none"/>
  <line stroke-linecap="null" stroke-linejoin="null" id="svg_129" y2="128" x2="216.5" y1="119" x1="216.5" fill-opacity="null" stroke-opacity="null" stroke-width="1.5" stroke="#000" fill="none"/>
  <line stroke-linecap="null" stroke-linejoin="null" id="svg_130" y2="159" x2="64.5" y1="149" x1="64.5" fill-opacity="null" stroke-opacity="null" stroke-width="1.5" stroke="#000" fill="none"/>
  <line stroke-linecap="null" stroke-linejoin="null" id="svg_131" y2="128" x2="64.5" y1="119" x1="64.5" fill-opacity="null" stroke-opacity="null" stroke-width="1.5" stroke="#000" fill="none"/>
  <line stroke-linecap="null" stroke-linejoin="null" id="svg_132" y2="77" x2="140" y1="130" x1="139.5" fill-opacity="null" stroke-opacity="null" stroke-width="1.5" stroke="#000" fill="none"/>
  <line stroke-linecap="null" stroke-linejoin="null" id="svg_133" y2="149" x2="140" y1="202" x1="139.5" fill-opacity="null" stroke-opacity="null" stroke-width="1.5" stroke="#000" fill="none"/>
  <line stroke-linecap="null" stroke-linejoin="null" id="svg_134" y2="139" x2="206.5" y1="139" x1="150.5" fill-opacity="null" stroke-opacity="null" stroke-width="1.5" stroke="#000" fill="none"/>
  <line stroke-linecap="null" stroke-linejoin="null" id="svg_135" y2="139" x2="130.5" y1="139" x1="74.5" fill-opacity="null" stroke-opacity="null" stroke-width="1.5" stroke="#000" fill="none"/>
 </g>
</svg>